<svg xmlns="http://www.w3.org/2000/svg" version="1.0" preserveAspectRatio="xMidYMid meet" viewBox="146.15 194.88 184.17 72.81"><g transform="translate(0.000000,500.000000) scale(0.100000,-0.100000)" fill="#FFF" stroke="none"><path d="M1855 3025 c-28 -27 -34 -88 -12 -116 39 -50 115 -48 148 4 55 89 -63 186 -136 112z"></path><path d="M2319 3021 c-20 -20 -29 -39 -29 -61 0 -43 47 -90 90 -90 43 0 90 47 90 90 0 43 -47 90 -90 90 -22 0 -41 -9 -61 -29z"></path><path d="M2796 3025 c-39 -36 -37 -94 6 -130 57 -48 132 -18 145 58 5 31 1 40 -25 67 -39 39 -87 41 -126 5z"></path><path d="M1837 2768 c-19 -18 -51 -67 -72 -108 -51 -102 -138 -187 -225 -222 -72 -29 -91 -48 -71 -72 20 -24 47 -20 137 24 98 47 148 98 218 223 52 94 68 112 90 104 23 -9 42 -53 75 -180 47 -182 102 -241 186 -201 48 22 68 59 119 218 48 146 58 166 87 166 25 0 47 -47 92 -190 44 -139 73 -185 125 -201 32 -9 44 -8 71 5 43 23 65 63 90 160 73 284 101 299 180 95 23 -58 53 -122 67 -143 55 -81 139 -81 214 0 55 60 97 149 79 170 -24 29 -52 12 -89 -55 -41 -74 -77 -106 -112 -98 -29 8 -50 43 -88 151 -38 107 -65 153 -101 171 -62 32 -122 8 -158 -63 -10 -21 -33 -91 -50 -156 -33 -125 -51 -166 -76 -166 -27 0 -49 46 -105 229 -40 127 -76 171 -141 171 -33 0 -47 -6 -73 -32 -32 -32 -42 -58 -106 -263 -32 -103 -62 -129 -93 -81 -9 13 -32 81 -52 151 -20 70 -42 140 -50 156 -41 78 -109 92 -168 37z"></path></g></svg>